<?xml version="1.0" encoding="UTF-8" standalone="no"?>
<!-- Created with Inkscape (http://www.inkscape.org/) -->

<svg
   xmlns:dc="http://purl.org/dc/elements/1.1/"
   xmlns:cc="http://creativecommons.org/ns#"
   xmlns:rdf="http://www.w3.org/1999/02/22-rdf-syntax-ns#"
   xmlns:svg="http://www.w3.org/2000/svg"
   xmlns="http://www.w3.org/2000/svg"
   xmlns:sodipodi="http://sodipodi.sourceforge.net/DTD/sodipodi-0.dtd"
   xmlns:inkscape="http://www.inkscape.org/namespaces/inkscape"
   version="1.1"
   id="svg2"
   width="400"
   height="400"
   viewBox="0 0 400 400"
   sodipodi:docname="name64.svg"
   inkscape:version="0.92.3 (2405546, 2018-03-11)">
  <metadata
     id="metadata8">
    <rdf:RDF>
      <cc:Work
         rdf:about="">
        <dc:format>image/svg+xml</dc:format>
        <dc:type
           rdf:resource="http://purl.org/dc/dcmitype/StillImage" />
        <dc:title></dc:title>
      </cc:Work>
    </rdf:RDF>
  </metadata>
  <defs
     id="defs6" />
  <sodipodi:namedview
     pagecolor="#ffffff"
     bordercolor="#666666"
     borderopacity="1"
     objecttolerance="10"
     gridtolerance="10"
     guidetolerance="10"
     inkscape:pageopacity="0"
     inkscape:pageshadow="2"
     inkscape:window-width="1920"
     inkscape:window-height="1025"
     id="namedview4"
     showgrid="false"
     inkscape:zoom="0.59"
     inkscape:cx="2.5423729"
     inkscape:cy="200"
     inkscape:window-x="0"
     inkscape:window-y="27"
     inkscape:window-maximized="1"
     inkscape:current-layer="svg2" />
  <path
     style="fill:#000000;stroke-width:1.33333337"
     d="M 45.333333,302 V 250.66667 H 96.666667 148 V 302 353.33333 H 96.666667 45.333333 Z m 87.999997,0 V 265.33333 H 96.666667 60 V 302 338.66667 h 36.666667 36.666663 z m -58.666663,0 v -22 h 22 22.000003 v 22 22 h -22.000003 -22 z m 88.000003,29.33333 v -22 H 170 177.33333 V 324 338.66667 H 184.66667 192 v -22 -22 h -7.33333 -7.33334 V 287.33333 280 H 170 162.66667 v -7.33333 -7.33334 H 170 177.33333 V 272.66667 280 H 192 206.66667 V 265.33333 250.66667 H 214 221.33333 V 243.33333 236 h -22 -22 v 7.33333 7.33334 H 170 162.66667 V 243.33333 236 H 170 h 7.33333 v -7.33333 -7.33334 H 184.66667 192 V 214 206.66667 H 177.33333 162.66667 V 155.33333 104 H 170 177.33333 V 89.333333 74.666667 H 170 162.66667 V 60 45.333333 H 199.33333 236 V 60 74.666667 h -7.33333 -7.33334 V 82 89.333333 H 228.66667 236 V 104 118.66667 h -14.66667 -14.66666 v 22 22 h 44 44 V 170 177.33333 H 302 309.33333 V 184.66667 192 H 316.66667 324 v 14.66667 14.66666 h 14.66667 14.66666 V 228.66667 236 h -22 -22 v 14.66667 14.66666 H 316.66667 324 V 272.66667 280 h 7.33333 7.33334 V 265.33333 250.66667 H 346 353.33333 V 265.33333 280 H 346 338.66667 v 14.66667 14.66666 H 346 h 7.33333 v 22 22 H 346 338.66667 V 346 338.66667 H 331.33333 324 V 346 v 7.33333 h -7.33333 -7.33334 V 338.66667 324 H 316.66667 324 v -14.66667 -14.66666 h -7.33333 -7.33334 V 287.33333 280 H 302 294.66667 v 7.33333 7.33334 H 287.33333 280 V 309.33333 324 h 7.33333 7.33334 v 14.66667 14.66666 H 287.33333 280 V 346 338.66667 h -7.33333 -7.33334 V 346 353.33333 H 258 250.66667 V 346 338.66667 H 258 h 7.33333 v -22 -22 H 258 250.66667 V 309.33333 324 H 236 221.33333 v 7.33333 7.33334 H 228.66667 236 V 346 v 7.33333 h -7.33333 -7.33334 V 346 338.66667 H 214 206.66667 V 346 v 7.33333 h -22 -22 z m 58.66666,-14.66666 v -7.33334 H 214 206.66667 V 316.66667 324 H 214 h 7.33333 z m 0,-29.33334 V 280 H 228.66667 236 v 7.33333 7.33334 h 7.33333 7.33334 V 280 265.33333 H 258 265.33333 V 258 250.66667 H 272.66667 280 V 265.33333 280 h -7.33333 -7.33334 v 7.33333 7.33334 H 272.66667 280 V 287.33333 280 h 7.33333 7.33334 V 265.33333 250.66667 H 287.33333 280 V 236 221.33333 h 7.33333 7.33334 V 228.66667 236 H 302 309.33333 V 214 192 H 302 294.66667 v 7.33333 7.33334 H 287.33333 280 V 199.33333 192 h -7.33333 -7.33334 v -7.33333 -7.33334 H 258 250.66667 V 184.66667 192 H 243.33333 236 v -7.33333 -7.33334 h -7.33333 -7.33334 V 184.66667 192 H 206.66667 192 v 7.33333 7.33334 h 14.66667 14.66666 V 199.33333 192 H 228.66667 236 v 7.33333 7.33334 h 7.33333 7.33334 v 22 22 H 236 221.33333 V 265.33333 280 H 214 206.66667 v 7.33333 7.33334 H 214 h 7.33333 z m 29.33334,-88 V 192 H 258 h 7.33333 v 7.33333 7.33334 H 258 250.66667 Z m -58.66667,-66 v -14.66666 h 7.33333 7.33334 V 104 89.333333 H 199.33333 192 V 96.666667 104 h -7.33333 -7.33334 v 22 22 H 184.66667 192 Z M 206.66667,67.333333 V 60 H 199.33333 192 v 7.333333 7.333334 h 7.33333 7.33334 z M 74.666667,228.66667 v -7.33334 H 89.333333 104 V 214 206.66667 H 89.333333 74.666667 V 199.33333 192 H 82 89.333333 v -7.33333 -7.33334 H 74.666667 60 v 22 22 H 52.666667 45.333333 V 192 162.66667 h 22 22 V 170 177.33333 H 96.666667 104 V 192 206.66667 h 7.33333 7.33334 V 214 221.33333 H 133.33333 148 V 228.66667 236 H 111.33333 74.666667 Z M 133.33333,199.33333 V 192 H 140.66667 148 v 7.33333 7.33334 h -7.33333 -7.33334 z M 118.66667,170 v -7.33333 H 133.33333 148 V 170 177.33333 H 133.33333 118.66667 Z M 324,170 v -7.33333 h 14.66667 14.66666 V 170 177.33333 H 338.66667 324 Z M 45.333333,96.666667 V 45.333333 H 96.666667 148 V 96.666667 148 H 96.666667 45.333333 Z m 87.999997,0 V 60 H 96.666667 60 v 36.666667 36.666663 h 36.666667 36.666663 z m -58.666663,0 v -22 h 22 22.000003 v 22 22.000003 h -22.000003 -22 z M 221.33333,140.66667 v -7.33334 H 228.66667 236 V 140.66667 148 h -7.33333 -7.33334 z M 250.66667,96.666667 V 45.333333 H 302 353.33333 V 96.666667 148 H 302 250.66667 Z m 88,0 V 60 H 302 265.33333 V 96.666667 133.33333 H 302 338.66667 Z m -58.66667,0 v -22 h 22 22 v 22 22.000003 h -22 -22 z"
     id="path817"
     inkscape:connector-curvature="0" />
</svg>
